<svg width="1440" height="100" viewBox="0 0 1440 100" fill="none" xmlns="http://www.w3.org/2000/svg">
<g clip-path="url(#clip0_22_2)">
<path d="M0 0L60 3.3C120 7 240 13 360 23.3C480 33 600 47 720 51.7C840 57 960 53 1080 48.3C1200 43 1320 37 1440 30C1560 23 1680 17 1800 21.7C1920 27 2040 43 2160 41.7C2280 40 2400 20 2520 21.7C2640 23 2760 47 2880 46.7C3000 47 3120 23 3240 16.7C3360 10 3480 20 3600 30C3720 40 3840 50 3960 45C4080 40 4200 20 4320 21.7C4440 23 4560 47 4680 56.7C4800 67 4920 63 5040 66.7C5160 70 5280 80 5400 70C5520 60 5640 30 5760 15C5880 0 6000 0 6120 1.7C6240 3 6360 7 6480 10C6600 13 6720 17 6840 28.3C6960 40 7080 60 7200 66.7C7320 73 7440 67 7560 65C7680 63 7800 67 7920 58.3C8040 50 8160 30 8280 31.7C8400 33 8520 57 8580 68.3L8640 80V100H8580C8520 100 8400 100 8280 100C8160 100 8040 100 7920 100C7800 100 7680 100 7560 100C7440 100 7320 100 7200 100C7080 100 6960 100 6840 100C6720 100 6600 100 6480 100C6360 100 6240 100 6120 100C6000 100 5880 100 5760 100C5640 100 5520 100 5400 100C5280 100 5160 100 5040 100C4920 100 4800 100 4680 100C4560 100 4440 100 4320 100C4200 100 4080 100 3960 100C3840 100 3720 100 3600 100C3480 100 3360 100 3240 100C3120 100 3000 100 2880 100C2760 100 2640 100 2520 100C2400 100 2280 100 2160 100C2040 100 1920 100 1800 100C1680 100 1560 100 1440 100C1320 100 1200 100 1080 100C960 100 840 100 720 100C600 100 480 100 360 100C240 100 120 100 60 100H0V0Z" fill="url(#paint0_linear_22_2)"/>
</g>
<defs>
<linearGradient id="paint0_linear_22_2" x1="0" y1="100" x2="0" y2="0" gradientUnits="userSpaceOnUse">
<stop stop-color="#FC7700"/>
<stop offset="1" stop-color="#FC7700"/>
</linearGradient>
<clipPath id="clip0_22_2">
<rect width="1440" height="100" fill="white"/>
</clipPath>
</defs>
</svg>
